# Blender 4.0.2
# www.blender.org
mtllib lightPost.mtl
o Cylinder
v -0.000000 -0.331801 -0.331801
v -0.000000 0.274337 -0.331801
v 0.315562 -0.331801 -0.102532
v 0.315562 0.274337 -0.102532
v 0.195028 -0.331801 0.268433
v 0.195028 0.274338 0.268433
v -0.195028 -0.331801 0.268433
v -0.195028 0.274338 0.268433
v -0.315562 -0.331801 -0.102532
v -0.315562 0.274337 -0.102532
v 0.171326 0.340383 -0.055667
v -0.000000 0.340382 -0.180142
v 0.105885 0.340383 0.145738
v -0.105885 0.340383 0.145738
v -0.171326 0.340383 -0.055667
v 0.171326 0.789489 -0.055667
v -0.000000 0.789489 -0.180143
v 0.105885 0.789489 0.145738
v -0.105885 0.789489 0.145738
v -0.171326 0.789489 -0.055667
v 0.078659 0.868743 -0.025558
v -0.000000 0.868743 -0.082707
v 0.048614 0.868743 0.066911
v -0.048614 0.868743 0.066911
v -0.078659 0.868743 -0.025558
v 0.078659 3.712759 -0.025558
v 0.000001 3.712759 -0.082707
v 0.048614 3.712759 0.066910
v -0.048613 3.712759 0.066910
v -0.078658 3.712759 -0.025558
v 0.078659 3.852881 0.048516
v 0.000001 3.894471 0.009320
v 0.048614 3.785587 0.111935
v -0.048613 3.785587 0.111935
v -0.078658 3.852881 0.048516
v 0.179724 3.911966 0.203913
v 0.000001 3.969115 0.204081
v 0.106931 3.819498 0.219092
v -0.106929 3.819498 0.219092
v -0.179722 3.911966 0.203913
v 0.179724 3.932279 0.781073
v 0.000001 3.960679 0.781241
v 0.106931 3.886328 0.765351
v -0.106929 3.886328 0.765351
v -0.179722 3.932279 0.781073
v -0.081192 3.766259 0.246324
v 0.081194 3.766259 0.246324
v -0.081192 3.811550 0.752942
v 0.081194 3.811550 0.752941
vn -0.0000 -0.0000 -1.0000
vn -0.0000 0.4703 -0.8825
vn 0.8393 0.4703 -0.2727
vn 0.9511 -0.0000 -0.3090
vn 0.5187 0.4703 0.7139
vn 0.5878 -0.0000 0.8090
vn -0.5187 0.4703 0.7139
vn -0.5878 -0.0000 0.8090
vn 0.4367 0.6694 0.6010
vn -0.4367 0.6694 0.6010
vn -0.8393 0.4703 -0.2727
vn -0.9511 -0.0000 -0.3090
vn -0.0000 0.6694 -0.7429
vn -0.7066 0.6694 -0.2296
vn -0.8808 0.3772 -0.2862
vn -0.0000 0.3772 -0.9262
vn 0.7066 0.6694 -0.2296
vn -0.5444 0.3772 0.7493
vn -0.5062 0.5082 0.6968
vn -0.8191 0.5082 -0.2661
vn 0.5444 0.3772 0.7493
vn 0.8808 0.3772 -0.2862
vn -0.6392 -0.2154 0.7383
vn -0.9207 0.1076 -0.3752
vn 0.8191 0.5082 -0.2661
vn 0.5062 0.5082 0.6968
vn -0.0000 0.5082 -0.8613
vn -0.0000 0.2172 -0.9761
vn -0.8385 0.2960 -0.4575
vn -0.0000 0.7174 -0.6967
vn 0.9207 0.1076 -0.3752
vn 0.6392 -0.2154 0.7383
vn -0.9340 0.2605 -0.2445
vn -0.0000 0.9740 -0.2266
vn 0.5518 -0.7485 0.3677
vn -0.5518 -0.7485 0.3677
vn 0.8385 0.2960 -0.4575
vn 0.9340 0.2605 -0.2445
vn -0.0000 0.6590 0.7521
vn 0.8360 0.2325 0.4970
vn 0.6393 -0.7479 -0.1787
vn -0.6393 -0.7479 -0.1787
vn -0.8360 0.2325 0.4970
vn -0.4664 -0.4960 0.7325
vn 0.4664 -0.4960 0.7325
vn -0.4554 -0.6887 0.5642
vn 0.4554 -0.6887 0.5642
vn -0.4512 -0.8024 -0.3906
vn 0.4512 -0.8024 -0.3906
vt 0.636896 0.001762
vt 0.625024 0.124261
vt 0.545067 0.144575
vt 0.538044 0.000115
vt 0.282251 0.927643
vt 0.337451 0.821522
vt 0.394068 0.860627
vt 0.350541 0.963165
vt 0.457788 0.872312
vt 0.437374 0.992024
vt 0.406676 0.834546
vt 0.458473 0.837863
vt 0.537814 0.851775
vt 0.537814 0.999885
vt 0.720394 0.015055
vt 0.699736 0.144809
vt 0.623698 0.157270
vt 0.675027 0.167202
vt 0.667317 0.262195
vt 0.628765 0.253869
vt 0.505944 0.822800
vt 0.364596 0.810188
vt 0.576182 0.173001
vt 0.496345 0.738711
vt 0.456714 0.749169
vt 0.455781 0.723641
vt 0.477407 0.717288
vt 0.425872 0.744986
vt 0.589148 0.263806
vt 0.395324 0.728837
vt 0.466348 0.058907
vt 0.486143 0.067667
vt 0.413224 0.716402
vt 0.433672 0.723916
vt 0.651399 0.281316
vt 0.628548 0.278553
vt 0.608074 0.284779
vt 0.680272 0.882088
vt 0.700280 0.883694
vt 0.700202 0.915491
vt 0.683249 0.916118
vt 0.424103 0.066190
vt 0.445099 0.058269
vt 0.661904 0.887010
vt 0.720394 0.945515
vt 0.685876 0.951726
vt 0.442962 0.035837
vt 0.469855 0.037361
vt 0.666540 0.917987
vt 0.491454 0.038816
vt 0.421162 0.037632
vt 0.720822 0.105952
vt 0.720624 0.065642
vt 0.840733 0.065642
vt 0.844249 0.103920
vt 0.434802 0.008537
vt 0.474274 0.007911
vt 0.650894 0.950533
vt 0.496788 0.000115
vt 0.413902 0.002880
vt 0.844249 0.027363
vt 0.855946 0.042993
vt 0.855946 0.088290
vt 0.720822 0.025331
vt 0.723548 0.000115
vt 0.840847 0.008971
vt 0.723548 0.131168
vt 0.840847 0.122312
vt 0.188881 0.357456
vt 0.077540 0.357456
vt 0.090939 0.317992
vt 0.175482 0.317992
vt 0.090939 0.053180
vt 0.175482 0.053180
vt 0.207303 0.041506
vt 0.215965 0.327893
vt 0.050456 0.327893
vt 0.059119 0.041505
vt 0.077540 0.022047
vt 0.188881 0.022047
s 1
usemtl Material.002
f 1/1/1 2/2/2 4/3/3 3/4/4
f 3/5/4 4/6/3 6/7/5 5/8/6
f 5/8/6 6/7/5 8/9/7 7/10/8
f 8/9/7 6/7/5 13/11/9 14/12/10
f 7/10/8 8/9/7 10/13/11 9/14/12
f 9/15/12 10/16/11 2/2/2 1/1/1
f 12/17/13 15/18/14 20/19/15 17/20/16
f 10/13/11 8/9/7 14/12/10 15/21/14
f 6/7/5 4/6/3 11/22/17 13/11/9
f 2/2/2 10/16/11 15/18/14 12/17/13
f 4/3/3 2/2/2 12/17/13 11/23/17
f 20/24/15 19/25/18 24/26/19 25/27/20
f 14/12/10 13/11/9 18/28/21 19/25/18
f 11/23/17 12/17/13 17/20/16 16/29/22
f 15/21/14 14/12/10 19/25/18 20/24/15
f 13/11/9 11/22/17 16/30/22 18/28/21
f 25/27/20 24/26/19 29/31/23 30/32/24
f 18/28/21 16/30/22 21/33/25 23/34/26
f 17/20/16 20/19/15 25/35/20 22/36/27
f 19/25/18 18/28/21 23/34/26 24/26/19
f 16/29/22 17/20/16 22/36/27 21/37/25
f 27/38/28 30/39/24 35/40/29 32/41/30
f 23/34/26 21/33/25 26/42/31 28/43/32
f 22/36/27 25/35/20 30/39/24 27/38/28
f 24/26/19 23/34/26 28/43/32 29/31/23
f 21/37/25 22/36/27 27/38/28 26/44/31
f 32/41/30 35/40/29 40/45/33 37/46/34
f 29/31/23 28/43/32 33/47/35 34/48/36
f 26/44/31 27/38/28 32/41/30 31/49/37
f 30/32/24 29/31/23 34/48/36 35/50/29
f 28/43/32 26/42/31 31/51/37 33/47/35
f 36/52/38 37/53/34 42/54/39 41/55/40
f 34/48/36 33/47/35 38/56/41 39/57/42
f 31/49/37 32/41/30 37/46/34 36/58/38
f 35/50/29 34/48/36 39/57/42 40/59/33
f 33/47/35 31/51/37 36/60/38 38/56/41
f 41/55/40 42/54/39 45/61/43 44/62/44 43/63/45
f 40/64/33 39/65/42 44/66/44 45/61/43
f 38/67/41 36/52/38 41/55/40 43/68/45
f 37/53/34 40/64/33 45/61/43 42/54/39
f 43/69/45 44/70/44 48/71/46 49/72/47
f 46/73/48 47/74/49 49/72/47 48/71/46
f 38/75/41 43/76/45 49/72/47 47/74/49
f 44/77/44 39/78/42 46/73/48 48/71/46
f 39/79/42 38/80/41 47/74/49 46/73/48
